<svg width="275" height="329" viewBox="0 0 275 329" fill="none" xmlns="http://www.w3.org/2000/svg">
<path d="M15.7149 172.753C24.3927 165.471 37.3366 166.609 44.624 175.293C51.9131 183.98 50.7846 196.924 42.1069 204.205C33.4278 211.488 20.4846 210.352 13.1956 201.665C5.90813 192.98 7.0358 180.035 15.7149 172.753Z" fill="#59B3AF"/>
<path d="M232.507 180.077C241.184 172.795 254.128 173.933 261.416 182.618C268.705 191.304 267.576 204.248 258.899 211.53C250.22 218.812 237.276 217.676 229.987 208.989C222.7 200.304 223.828 187.36 232.507 180.077Z" fill="#59B3AF"/>
<path d="M95.0483 187.819L55.8785 192.919C56.3845 187.702 55.7287 182.355 53.8473 177.288L93.0171 172.188C92.5107 177.404 93.1665 182.751 95.0483 187.819Z" fill="#59B3AF"/>
<path d="M177.328 247.492C176.977 242.132 175.403 236.82 172.569 232.001L218.222 205.076C219.522 207.974 221.228 210.746 223.369 213.297C224.739 214.929 226.232 216.397 227.814 217.716L177.328 247.492Z" fill="#59B3AF"/>
<path d="M136.159 223.746L132.962 194.937C138.236 195.041 143.543 193.974 148.46 191.69L151.656 220.498C146.384 220.394 141.077 221.463 136.159 223.746Z" fill="#59B3AF"/>
<path d="M135.829 231.345C144.507 224.064 157.451 225.201 164.738 233.886C172.028 242.573 170.899 255.516 162.221 262.798C153.542 270.081 140.599 268.944 133.31 260.257C126.023 251.573 127.15 238.628 135.829 231.345Z" fill="#59B3AF"/>
<path d="M133.011 0.473154C147.975 9.89071 160.793 22.3448 170.637 37.0291C180.481 51.7134 187.13 68.3007 190.155 85.717C190.155 85.717 196.655 82.5109 201.014 67.5768C201.186 67.0139 201.515 66.5115 201.962 66.1285C202.409 65.7455 202.956 65.4976 203.539 65.4137C204.122 65.3299 204.717 65.4135 205.254 65.6549C205.791 65.8963 206.248 66.2855 206.572 66.777C217.259 83.0651 223.05 102.075 223.259 121.553C223.259 164.849 186.206 199.947 140.498 199.947C94.789 199.947 57.7358 164.849 57.7358 121.553C57.7172 110.749 59.3095 100.002 62.4602 89.6677C62.6707 88.9962 63.0836 88.406 63.6424 87.9779C64.2011 87.5498 64.8785 87.3047 65.5819 87.276C66.2853 87.2473 66.9803 87.4365 67.5721 87.8177C68.1639 88.1989 68.6234 88.7535 68.888 89.4057C71.395 95.4869 75.7227 102.775 82.5644 105.05C81.7239 96.7271 82.7761 88.3219 85.6424 80.4628C88.5087 72.6037 93.1149 65.4939 99.1167 59.665C118.469 40.3596 126.963 28.2937 127.976 3.17247C128.003 2.59761 128.178 2.03951 128.485 1.55269C128.792 1.06587 129.22 0.666985 129.728 0.395002C130.235 0.12302 130.804 -0.0127552 131.38 0.000942756C131.955 0.0146407 132.517 0.177343 133.011 0.473154Z" fill="#E4531E"/>
<path d="M136.869 56.7211C149.102 63.6407 159.272 73.2861 166.456 84.7793C173.64 96.2725 177.609 109.249 178.001 122.526C178.034 122.979 178.208 123.414 178.503 123.776C178.798 124.139 179.201 124.414 179.662 124.567C180.123 124.721 180.622 124.746 181.099 124.641C181.575 124.536 182.008 124.304 182.345 123.974C185.621 120.58 187.91 116.468 188.995 112.026C189.118 111.611 189.365 111.236 189.709 110.946C190.052 110.655 190.477 110.461 190.935 110.386C191.392 110.311 191.864 110.357 192.294 110.521C192.724 110.684 193.095 110.957 193.365 111.308C199.067 119.149 202.083 128.404 202.018 137.86C202.018 166.892 175.249 190.425 142.225 190.425C114.629 190.425 87.0319 173.376 87.0319 144.355C87.0319 117.328 102.014 105.917 112.329 96.3692C126.298 83.442 132.437 75.3452 133.179 58.5501C133.197 58.1592 133.326 57.7795 133.551 57.4484C133.776 57.1173 134.09 56.8462 134.462 56.6617C134.834 56.4771 135.252 56.3856 135.674 56.396C136.096 56.4064 136.508 56.5184 136.869 56.7211Z" fill="#FFD227"/>
<path d="M137.203 181.276C138.065 182.425 139.424 183.101 140.864 183.101C142.303 183.101 143.662 182.425 144.525 181.276L162.848 153.608C166.433 148.849 168.329 143.182 168.329 137.212C168.329 122.13 156.009 109.861 140.864 109.861C125.718 109.861 113.398 122.13 113.398 137.212C113.398 143.177 115.294 148.849 118.879 153.608L137.203 181.276ZM140.864 123.536C148.436 123.536 154.596 129.671 154.596 137.212C154.596 144.753 148.436 150.888 140.864 150.888C133.291 150.888 127.131 144.753 127.131 137.212C127.131 129.671 133.291 123.536 140.864 123.536Z" fill="#59B3AF"/>
</svg>
